<svg width="664" height="324" viewBox="0 0 664 324" fill="none" xmlns="http://www.w3.org/2000/svg">
<g filter="url(#filter0_i_2_2)">
<g filter="url(#filter1_d_2_2)">
<path d="M140.918 45.4206L51.3783 198.77H176.973L161.214 176.625H95.3126L140.918 98.0452L213.983 224.011H36.8131L22.7255 248.299H259.828L140.918 45.4206Z" fill="url(#paint0_linear_2_2)" fill-opacity="0.96" shape-rendering="crispEdges"/>
<path d="M140.918 45.4206L51.3783 198.77H176.973L161.214 176.625H95.3126L140.918 98.0452L213.983 224.011H36.8131L22.7255 248.299H259.828L140.918 45.4206Z" stroke="#F55800" stroke-opacity="0.99" shape-rendering="crispEdges"/>
</g>
</g>
<path d="M269.36 104V84.608H250.352V104H244.784V60.48H250.352V79.36H269.36V60.48H274.928V104H269.36ZM310.296 102.144C308.376 103.083 306.456 103.723 304.536 104.064C302.616 104.448 300.845 104.64 299.224 104.64C294.658 104.64 291.245 103.339 288.984 100.736C286.765 98.1333 285.656 94.5707 285.656 90.048V86.208C285.656 81.8133 286.765 78.2933 288.984 75.648C291.245 73.0027 294.424 71.68 298.52 71.68C300.696 71.68 302.68 72.128 304.472 73.024C306.306 73.8773 307.757 75.2 308.824 76.992C309.933 78.7413 310.488 81.0027 310.488 83.776C310.488 85.568 310.232 87.616 309.72 89.92H290.84V90.048C290.84 93.2907 291.501 95.744 292.824 97.408C294.189 99.072 296.365 99.904 299.352 99.904C300.717 99.904 302.21 99.7333 303.832 99.392C305.496 99.0507 307.117 98.5173 308.696 97.792L310.296 102.144ZM298.52 76.288C296.045 76.288 294.168 77.0987 292.888 78.72C291.65 80.2987 290.968 82.5387 290.84 85.44H305.176C305.304 84.672 305.368 83.9467 305.368 83.264C305.368 80.8747 304.685 79.1253 303.32 78.016C301.997 76.864 300.397 76.288 298.52 76.288ZM342.738 104.32C340.775 104.32 339.196 103.872 338.002 102.976C336.85 102.08 336.039 100.971 335.57 99.648C333.479 101.483 331.58 102.784 329.874 103.552C328.167 104.277 326.46 104.64 324.754 104.64C321.98 104.64 319.932 103.744 318.61 101.952C317.287 100.16 316.626 97.9627 316.626 95.36C316.626 93.6107 316.946 92.0533 317.586 90.688C318.226 89.3227 319.314 88.256 320.85 87.488C322.386 86.6773 324.455 86.272 327.058 86.272C328.21 86.272 329.468 86.3573 330.833 86.528C332.199 86.656 333.586 86.8267 334.994 87.04V82.752C334.994 80.3627 334.46 78.7413 333.394 77.888C332.37 76.992 330.855 76.544 328.85 76.544C326.119 76.544 323.068 77.2907 319.698 78.784L318.034 74.432C319.996 73.536 321.874 72.8533 323.666 72.384C325.458 71.9147 327.271 71.68 329.106 71.68C332.092 71.68 334.375 72.1707 335.954 73.152C337.532 74.1333 338.62 75.4347 339.218 77.056C339.815 78.6773 340.114 80.448 340.114 82.368V96.064C340.114 97.0453 340.306 97.8773 340.69 98.56C341.074 99.2 341.842 99.52 342.994 99.52H343.698V104.32H342.738ZM321.81 95.296C321.81 96.7467 322.151 97.92 322.834 98.816C323.516 99.712 324.498 100.16 325.778 100.16C326.887 100.16 328.167 99.84 329.618 99.2C331.068 98.5173 332.86 97.1733 334.994 95.168V91.136C332.092 90.6667 329.532 90.432 327.314 90.432C325.351 90.432 323.943 90.8373 323.09 91.648C322.236 92.4587 321.81 93.6747 321.81 95.296ZM351.068 96.32V56.64H356.316V96.064C356.316 97.216 356.487 98.0907 356.828 98.688C357.212 99.2427 357.959 99.52 359.068 99.52H360.092V104.32H358.62C355.804 104.32 353.841 103.573 352.732 102.08C351.623 100.587 351.068 98.6667 351.068 96.32ZM385.415 102.848C383.026 104.043 380.487 104.64 377.799 104.64C375.495 104.64 373.682 104.171 372.359 103.232C371.079 102.293 370.162 101.035 369.607 99.456C369.095 97.8773 368.839 96.128 368.839 94.208V76.928H363.335V72.32H368.839V63.488H374.087V72.32H384.455V76.928H374.087V94.016C374.087 96.2347 374.45 97.7707 375.175 98.624C375.943 99.4347 377.116 99.84 378.695 99.84C379.463 99.84 380.252 99.7547 381.063 99.584C381.916 99.3707 382.834 99.0293 383.815 98.56L385.415 102.848ZM407.552 76.608C406.357 76.608 404.949 76.9067 403.328 77.504C401.749 78.1013 399.829 79.3173 397.568 81.152V104H392.32V56.64H397.568V76.544C399.786 74.6667 401.792 73.3867 403.583 72.704C405.376 72.0213 407.125 71.68 408.832 71.68C411.776 71.68 414.016 72.6187 415.552 74.496C417.13 76.3307 417.92 78.9547 417.92 82.368V104H412.672V83.136C412.672 78.784 410.965 76.608 407.552 76.608ZM253.68 176.648C256.368 176.648 258.437 176.072 259.888 174.92C261.339 173.725 262.064 171.997 262.064 169.736C262.064 167.859 261.552 166.28 260.528 165C259.547 163.72 257.925 162.739 255.664 162.056L250.48 160.52C247.237 159.539 244.848 158.067 243.312 156.104C241.776 154.099 241.008 151.645 241.008 148.744C241.008 146.525 241.435 144.52 242.288 142.728C243.184 140.936 244.592 139.507 246.512 138.44C248.475 137.373 251.035 136.84 254.192 136.84C256.112 136.84 258.096 137.075 260.144 137.544C262.192 137.971 264.261 138.675 266.352 139.656L264.56 144.456C262.512 143.56 260.656 142.92 258.992 142.536C257.371 142.109 255.813 141.896 254.32 141.896C251.888 141.896 249.989 142.408 248.624 143.432C247.301 144.413 246.64 146.056 246.64 148.36C246.64 150.024 247.088 151.432 247.984 152.584C248.88 153.693 250.48 154.611 252.784 155.336L257.968 156.872C264.453 158.792 267.696 162.931 267.696 169.288C267.696 172.957 266.587 175.944 264.368 178.248C262.149 180.509 258.587 181.64 253.68 181.64C251.675 181.64 249.541 181.405 247.28 180.936C245.061 180.424 242.757 179.635 240.368 178.568L242.096 173.832C244.357 174.856 246.384 175.581 248.176 176.008C250.011 176.435 251.845 176.648 253.68 176.648ZM279.719 163.272V167.048C279.719 170.291 280.316 172.744 281.511 174.408C282.706 176.029 284.604 176.84 287.207 176.84C289.767 176.84 292.519 176.179 295.463 174.856L297.063 179.272C293.564 180.851 290.172 181.64 286.887 181.64C282.791 181.64 279.676 180.339 277.543 177.736C275.41 175.133 274.343 171.571 274.343 167.048V163.272C274.343 158.749 275.41 155.187 277.543 152.584C279.676 149.981 282.791 148.68 286.887 148.68C288.423 148.68 290.002 148.893 291.623 149.32C293.287 149.704 294.951 150.259 296.615 150.984L295.015 155.464C293.607 154.867 292.242 154.397 290.919 154.056C289.639 153.715 288.402 153.544 287.207 153.544C284.604 153.544 282.706 154.376 281.511 156.04C280.316 157.661 279.719 160.072 279.719 163.272ZM319.989 153.608C318.794 153.608 317.386 153.907 315.765 154.504C314.186 155.101 312.266 156.317 310.005 158.152V181H304.757V133.64H310.005V153.544C312.224 151.667 314.229 150.387 316.021 149.704C317.813 149.021 319.562 148.68 321.269 148.68C324.213 148.68 326.453 149.619 327.989 151.496C329.568 153.331 330.357 155.955 330.357 159.368V181H325.109V160.136C325.109 155.784 323.402 153.608 319.989 153.608ZM364.296 179.144C362.376 180.083 360.456 180.723 358.536 181.064C356.616 181.448 354.845 181.64 353.224 181.64C348.658 181.64 345.245 180.339 342.984 177.736C340.765 175.133 339.656 171.571 339.656 167.048V163.208C339.656 158.813 340.765 155.293 342.984 152.648C345.245 150.003 348.424 148.68 352.52 148.68C354.696 148.68 356.68 149.128 358.472 150.024C360.306 150.877 361.757 152.2 362.824 153.992C363.933 155.741 364.488 158.003 364.488 160.776C364.488 162.568 364.232 164.616 363.72 166.92H344.84V167.048C344.84 170.291 345.501 172.744 346.824 174.408C348.189 176.072 350.365 176.904 353.352 176.904C354.717 176.904 356.21 176.733 357.832 176.392C359.496 176.051 361.117 175.517 362.696 174.792L364.296 179.144ZM352.52 153.288C350.045 153.288 348.168 154.099 346.888 155.72C345.65 157.299 344.968 159.539 344.84 162.44H359.176C359.304 161.672 359.368 160.947 359.368 160.264C359.368 157.875 358.685 156.125 357.32 155.016C355.997 153.864 354.397 153.288 352.52 153.288ZM392.834 181V176.584C390.871 178.461 389.079 179.784 387.458 180.552C385.879 181.277 384.236 181.64 382.53 181.64C379.159 181.64 376.556 180.36 374.722 177.8C372.93 175.24 372.034 171.656 372.034 167.048V163.336C372.034 158.856 373.143 155.293 375.362 152.648C377.623 150.003 380.887 148.68 385.154 148.68C386.391 148.68 387.628 148.808 388.866 149.064C390.103 149.32 391.34 149.683 392.578 150.152V133.64H397.826V181H392.834ZM377.474 167.048C377.474 170.376 377.986 172.829 379.01 174.408C380.076 175.944 381.655 176.712 383.746 176.712C384.983 176.712 386.263 176.413 387.586 175.816C388.908 175.176 390.572 173.875 392.578 171.912V155.016C391.34 154.461 390.146 154.077 388.994 153.864C387.842 153.608 386.711 153.48 385.602 153.48C382.7 153.48 380.61 154.355 379.33 156.104C378.092 157.853 377.474 160.264 377.474 163.336V167.048ZM428.652 181V176.52C426.433 178.44 424.449 179.784 422.7 180.552C420.951 181.277 419.201 181.64 417.452 181.64C414.636 181.64 412.481 180.723 410.988 178.888C409.495 177.011 408.748 174.387 408.748 171.016V149.32H413.996V170.248C413.996 172.467 414.38 174.109 415.148 175.176C415.959 176.2 417.153 176.712 418.732 176.712C419.927 176.712 421.271 176.413 422.764 175.816C424.257 175.219 426.113 174.024 428.332 172.232V149.32H433.58V181H428.652ZM444.818 173.32V133.64H450.066V173.064C450.066 174.216 450.237 175.091 450.578 175.688C450.962 176.243 451.709 176.52 452.818 176.52H453.842V181.32H452.37C449.554 181.32 447.591 180.573 446.482 179.08C445.373 177.587 444.818 175.667 444.818 173.32ZM484.733 179.144C482.813 180.083 480.893 180.723 478.973 181.064C477.053 181.448 475.282 181.64 473.661 181.64C469.096 181.64 465.682 180.339 463.421 177.736C461.202 175.133 460.093 171.571 460.093 167.048V163.208C460.093 158.813 461.202 155.293 463.421 152.648C465.682 150.003 468.861 148.68 472.957 148.68C475.133 148.68 477.117 149.128 478.909 150.024C480.744 150.877 482.194 152.2 483.261 153.992C484.37 155.741 484.925 158.003 484.925 160.776C484.925 162.568 484.669 164.616 484.157 166.92H465.277V167.048C465.277 170.291 465.938 172.744 467.261 174.408C468.626 176.072 470.802 176.904 473.789 176.904C475.154 176.904 476.648 176.733 478.269 176.392C479.933 176.051 481.554 175.517 483.133 174.792L484.733 179.144ZM472.957 153.288C470.482 153.288 468.605 154.099 467.325 155.72C466.088 157.299 465.405 159.539 465.277 162.44H479.613C479.741 161.672 479.805 160.947 479.805 160.264C479.805 157.875 479.122 156.125 477.757 155.016C476.434 153.864 474.834 153.288 472.957 153.288Z" fill="#F1F1F1"/>
<path d="M295.912 248L294.28 242.944H286.024L284.392 248H281.672L288.904 226.24H291.528L298.792 248H295.912ZM288.04 236.672L286.824 240.416H293.448L292.232 236.672L290.152 229.952L288.04 236.672ZM314.832 249.984C314.832 251.541 314.192 252.789 312.912 253.728C311.653 254.667 309.914 255.136 307.696 255.136C306.586 255.136 305.424 254.987 304.208 254.688C303.013 254.389 301.882 253.909 300.816 253.248L301.712 251.2C302.778 251.797 303.802 252.213 304.784 252.448C305.786 252.704 306.757 252.832 307.696 252.832C309.146 252.832 310.266 252.597 311.056 252.128C311.845 251.659 312.24 251.029 312.24 250.24C312.24 249.664 312.048 249.216 311.664 248.896C311.28 248.597 310.661 248.448 309.808 248.448H306.128C304.741 248.448 303.738 248.117 303.12 247.456C302.501 246.795 302.192 246.069 302.192 245.28C302.192 244.725 302.32 244.181 302.576 243.648C302.832 243.093 303.194 242.549 303.664 242.016C302.917 241.568 302.32 240.96 301.872 240.192C301.424 239.403 301.2 238.453 301.2 237.344C301.2 236.128 301.456 235.115 301.968 234.304C302.501 233.493 303.205 232.885 304.08 232.48C304.954 232.053 305.936 231.84 307.024 231.84H307.568C308.314 231.84 308.997 231.947 309.616 232.16H315.312V234.496L311.856 234.016C312.304 234.4 312.666 234.88 312.944 235.456C313.221 236.011 313.36 236.693 313.36 237.504C313.36 238.656 313.093 239.627 312.56 240.416C312.048 241.205 311.354 241.813 310.48 242.24C309.605 242.645 308.634 242.848 307.568 242.848H307.024C306.746 242.848 306.48 242.837 306.224 242.816C305.968 242.773 305.712 242.731 305.456 242.688C304.837 243.371 304.528 244.043 304.528 244.704C304.528 245.557 305.125 245.984 306.32 245.984H309.904C311.44 245.984 312.645 246.325 313.52 247.008C314.394 247.691 314.832 248.683 314.832 249.984ZM307.568 240.576C308.4 240.576 309.136 240.309 309.776 239.776C310.416 239.243 310.736 238.432 310.736 237.344C310.736 236.277 310.416 235.477 309.776 234.944C309.136 234.389 308.4 234.112 307.568 234.112H307.024C306.17 234.112 305.424 234.389 304.784 234.944C304.144 235.477 303.824 236.277 303.824 237.344C303.824 238.432 304.144 239.243 304.784 239.776C305.424 240.309 306.17 240.576 307.024 240.576H307.568ZM330.273 247.072C329.313 247.541 328.353 247.861 327.393 248.032C326.433 248.224 325.547 248.32 324.737 248.32C322.454 248.32 320.747 247.669 319.617 246.368C318.507 245.067 317.953 243.285 317.953 241.024V239.104C317.953 236.907 318.507 235.147 319.617 233.824C320.747 232.501 322.337 231.84 324.385 231.84C325.473 231.84 326.465 232.064 327.361 232.512C328.278 232.939 329.003 233.6 329.537 234.496C330.091 235.371 330.369 236.501 330.369 237.888C330.369 238.784 330.241 239.808 329.985 240.96H320.545V241.024C320.545 242.645 320.875 243.872 321.537 244.704C322.219 245.536 323.307 245.952 324.801 245.952C325.483 245.952 326.23 245.867 327.041 245.696C327.873 245.525 328.683 245.259 329.473 244.896L330.273 247.072ZM324.385 234.144C323.147 234.144 322.209 234.549 321.569 235.36C320.95 236.149 320.609 237.269 320.545 238.72H327.713C327.777 238.336 327.809 237.973 327.809 237.632C327.809 236.437 327.467 235.563 326.785 235.008C326.123 234.432 325.323 234.144 324.385 234.144ZM342.526 234.304C341.928 234.304 341.224 234.453 340.414 234.752C339.624 235.051 338.664 235.659 337.534 236.576V248H334.91V232.16H337.406V234.368C338.536 233.408 339.56 232.747 340.478 232.384C341.416 232.021 342.312 231.84 343.166 231.84C344.638 231.84 345.758 232.309 346.526 233.248C347.315 234.165 347.71 235.477 347.71 237.184V248H345.086V237.568C345.086 235.392 344.232 234.304 342.526 234.304ZM362.823 248V245.792C361.842 246.731 360.946 247.392 360.135 247.776C359.346 248.139 358.524 248.32 357.671 248.32C355.986 248.32 354.684 247.68 353.767 246.4C352.871 245.12 352.423 243.328 352.423 241.024V239.168C352.423 236.928 352.978 235.147 354.087 233.824C355.218 232.501 356.85 231.84 358.983 231.84C359.602 231.84 360.22 231.904 360.839 232.032C361.458 232.16 362.076 232.341 362.695 232.576V224.32H365.319V248H362.823ZM355.143 241.024C355.143 242.688 355.399 243.915 355.911 244.704C356.444 245.472 357.234 245.856 358.279 245.856C358.898 245.856 359.538 245.707 360.199 245.408C360.86 245.088 361.692 244.437 362.695 243.456V235.008C362.076 234.731 361.479 234.539 360.903 234.432C360.327 234.304 359.762 234.24 359.207 234.24C357.756 234.24 356.711 234.677 356.071 235.552C355.452 236.427 355.143 237.632 355.143 239.168V241.024ZM382.556 248.16C381.575 248.16 380.786 247.936 380.188 247.488C379.612 247.04 379.207 246.485 378.972 245.824C377.927 246.741 376.978 247.392 376.124 247.776C375.271 248.139 374.418 248.32 373.564 248.32C372.178 248.32 371.154 247.872 370.492 246.976C369.831 246.08 369.5 244.981 369.5 243.68C369.5 242.805 369.66 242.027 369.98 241.344C370.3 240.661 370.844 240.128 371.612 239.744C372.38 239.339 373.415 239.136 374.716 239.136C375.292 239.136 375.922 239.179 376.604 239.264C377.287 239.328 377.98 239.413 378.684 239.52V237.376C378.684 236.181 378.418 235.371 377.884 234.944C377.372 234.496 376.615 234.272 375.612 234.272C374.247 234.272 372.722 234.645 371.036 235.392L370.204 233.216C371.186 232.768 372.124 232.427 373.02 232.192C373.916 231.957 374.823 231.84 375.74 231.84C377.234 231.84 378.375 232.085 379.164 232.576C379.954 233.067 380.498 233.717 380.796 234.528C381.095 235.339 381.244 236.224 381.244 237.184V244.032C381.244 244.523 381.34 244.939 381.532 245.28C381.724 245.6 382.108 245.76 382.684 245.76H383.036V248.16H382.556ZM372.092 243.648C372.092 244.373 372.263 244.96 372.604 245.408C372.946 245.856 373.436 246.08 374.076 246.08C374.631 246.08 375.271 245.92 375.996 245.6C376.722 245.259 377.618 244.587 378.684 243.584V241.568C377.234 241.333 375.954 241.216 374.844 241.216C373.863 241.216 373.159 241.419 372.732 241.824C372.306 242.229 372.092 242.837 372.092 243.648ZM405.85 233.568V254.816H403.226V245.856C402.266 246.773 401.381 247.413 400.57 247.776C399.781 248.139 398.97 248.32 398.138 248.32C396.474 248.32 395.194 247.68 394.298 246.4C393.402 245.12 392.954 243.328 392.954 241.024V239.168C392.954 236.928 393.509 235.147 394.618 233.824C395.749 232.501 397.381 231.84 399.514 231.84C401.605 231.84 403.717 232.416 405.85 233.568ZM395.674 241.024C395.674 242.688 395.93 243.915 396.442 244.704C396.954 245.472 397.733 245.856 398.778 245.856C399.397 245.856 400.037 245.696 400.698 245.376C401.36 245.056 402.202 244.405 403.226 243.424V235.04C401.968 234.507 400.784 234.24 399.674 234.24C398.245 234.24 397.221 234.677 396.602 235.552C395.984 236.427 395.674 237.632 395.674 239.168V241.024ZM421.17 248V245.76C420.06 246.72 419.068 247.392 418.194 247.776C417.319 248.139 416.444 248.32 415.57 248.32C414.162 248.32 413.084 247.861 412.338 246.944C411.591 246.005 411.218 244.693 411.218 243.008V232.16H413.842V242.624C413.842 243.733 414.034 244.555 414.418 245.088C414.823 245.6 415.42 245.856 416.21 245.856C416.807 245.856 417.479 245.707 418.226 245.408C418.972 245.109 419.9 244.512 421.01 243.616V232.16H423.634V248H421.17ZM440.773 247.072C439.813 247.541 438.853 247.861 437.893 248.032C436.933 248.224 436.047 248.32 435.237 248.32C432.954 248.32 431.247 247.669 430.117 246.368C429.007 245.067 428.453 243.285 428.453 241.024V239.104C428.453 236.907 429.007 235.147 430.117 233.824C431.247 232.501 432.837 231.84 434.885 231.84C435.973 231.84 436.965 232.064 437.861 232.512C438.778 232.939 439.503 233.6 440.037 234.496C440.591 235.371 440.869 236.501 440.869 237.888C440.869 238.784 440.741 239.808 440.485 240.96H431.045V241.024C431.045 242.645 431.375 243.872 432.037 244.704C432.719 245.536 433.807 245.952 435.301 245.952C435.983 245.952 436.73 245.867 437.541 245.696C438.373 245.525 439.183 245.259 439.973 244.896L440.773 247.072ZM434.885 234.144C433.647 234.144 432.709 234.549 432.069 235.36C431.45 236.149 431.109 237.269 431.045 238.72H438.213C438.277 238.336 438.309 237.973 438.309 237.632C438.309 236.437 437.967 235.563 437.285 235.008C436.623 234.432 435.823 234.144 434.885 234.144ZM454.235 239.136V241.024C454.235 242.645 454.533 243.872 455.131 244.704C455.728 245.515 456.677 245.92 457.979 245.92C459.259 245.92 460.635 245.589 462.107 244.928L462.907 247.136C461.157 247.925 459.461 248.32 457.819 248.32C455.771 248.32 454.213 247.669 453.147 246.368C452.08 245.067 451.547 243.285 451.547 241.024V239.136C451.547 236.875 452.08 235.093 453.147 233.792C454.213 232.491 455.771 231.84 457.819 231.84C458.587 231.84 459.376 231.947 460.187 232.16C461.019 232.352 461.851 232.629 462.683 232.992L461.883 235.232C461.179 234.933 460.496 234.699 459.835 234.528C459.195 234.357 458.576 234.272 457.979 234.272C456.677 234.272 455.728 234.688 455.131 235.52C454.533 236.331 454.235 237.536 454.235 239.136ZM479.235 239.104V241.024C479.235 243.285 478.648 245.067 477.475 246.368C476.323 247.669 474.67 248.32 472.515 248.32C470.382 248.32 468.728 247.669 467.555 246.368C466.382 245.067 465.795 243.285 465.795 241.024V239.104C465.795 236.885 466.371 235.125 467.523 233.824C468.696 232.501 470.36 231.84 472.515 231.84C474.67 231.84 476.323 232.501 477.475 233.824C478.648 235.125 479.235 236.885 479.235 239.104ZM476.515 239.104C476.515 237.589 476.174 236.405 475.491 235.552C474.808 234.677 473.816 234.24 472.515 234.24C471.235 234.24 470.243 234.677 469.539 235.552C468.856 236.405 468.515 237.589 468.515 239.104V241.024C468.515 242.603 468.856 243.819 469.539 244.672C470.243 245.525 471.235 245.952 472.515 245.952C473.816 245.952 474.808 245.525 475.491 244.672C476.174 243.819 476.515 242.603 476.515 241.024V239.104ZM491.62 234.304C491.022 234.304 490.318 234.453 489.508 234.752C488.718 235.051 487.758 235.659 486.628 236.576V248H484.004V232.16H486.5V234.368C487.63 233.408 488.654 232.747 489.572 232.384C490.51 232.021 491.406 231.84 492.26 231.84C493.732 231.84 494.852 232.309 495.62 233.248C496.409 234.165 496.804 235.477 496.804 237.184V248H494.18V237.568C494.18 235.392 493.326 234.304 491.62 234.304ZM513.773 247.072C512.813 247.541 511.853 247.861 510.893 248.032C509.933 248.224 509.047 248.32 508.237 248.32C505.954 248.32 504.247 247.669 503.117 246.368C502.007 245.067 501.453 243.285 501.453 241.024V239.104C501.453 236.907 502.007 235.147 503.117 233.824C504.247 232.501 505.837 231.84 507.885 231.84C508.973 231.84 509.965 232.064 510.861 232.512C511.778 232.939 512.503 233.6 513.037 234.496C513.591 235.371 513.869 236.501 513.869 237.888C513.869 238.784 513.741 239.808 513.485 240.96H504.045V241.024C504.045 242.645 504.375 243.872 505.037 244.704C505.719 245.536 506.807 245.952 508.301 245.952C508.983 245.952 509.73 245.867 510.541 245.696C511.373 245.525 512.183 245.259 512.973 244.896L513.773 247.072ZM507.885 234.144C506.647 234.144 505.709 234.549 505.069 235.36C504.45 236.149 504.109 237.269 504.045 238.72H511.213C511.277 238.336 511.309 237.973 511.309 237.632C511.309 236.437 510.967 235.563 510.285 235.008C509.623 234.432 508.823 234.144 507.885 234.144ZM520.266 239.136V241.024C520.266 242.645 520.564 243.872 521.162 244.704C521.759 245.515 522.708 245.92 524.01 245.92C525.29 245.92 526.666 245.589 528.138 244.928L528.938 247.136C527.188 247.925 525.492 248.32 523.85 248.32C521.802 248.32 520.244 247.669 519.178 246.368C518.111 245.067 517.578 243.285 517.578 241.024V239.136C517.578 236.875 518.111 235.093 519.178 233.792C520.244 232.491 521.802 231.84 523.85 231.84C524.618 231.84 525.407 231.947 526.218 232.16C527.05 232.352 527.882 232.629 528.714 232.992L527.914 235.232C527.21 234.933 526.527 234.699 525.866 234.528C525.226 234.357 524.607 234.272 524.01 234.272C522.708 234.272 521.759 234.688 521.162 235.52C520.564 236.331 520.266 237.536 520.266 239.136ZM541.489 247.424C540.294 248.021 539.025 248.32 537.681 248.32C536.529 248.32 535.622 248.085 534.961 247.616C534.321 247.147 533.862 246.517 533.585 245.728C533.329 244.939 533.201 244.064 533.201 243.104V234.464H530.449V232.16H533.201V227.744H535.825V232.16H541.009V234.464H535.825V243.008C535.825 244.117 536.006 244.885 536.369 245.312C536.753 245.717 537.339 245.92 538.129 245.92C538.513 245.92 538.907 245.877 539.313 245.792C539.739 245.685 540.198 245.515 540.689 245.28L541.489 247.424ZM556.525 248.16C555.544 248.16 554.754 247.936 554.157 247.488C553.581 247.04 553.176 246.485 552.941 245.824C551.896 246.741 550.946 247.392 550.093 247.776C549.24 248.139 548.386 248.32 547.533 248.32C546.146 248.32 545.122 247.872 544.461 246.976C543.8 246.08 543.469 244.981 543.469 243.68C543.469 242.805 543.629 242.027 543.949 241.344C544.269 240.661 544.813 240.128 545.581 239.744C546.349 239.339 547.384 239.136 548.685 239.136C549.261 239.136 549.89 239.179 550.573 239.264C551.256 239.328 551.949 239.413 552.653 239.52V237.376C552.653 236.181 552.386 235.371 551.853 234.944C551.341 234.496 550.584 234.272 549.581 234.272C548.216 234.272 546.69 234.645 545.005 235.392L544.173 233.216C545.154 232.768 546.093 232.427 546.989 232.192C547.885 231.957 548.792 231.84 549.709 231.84C551.202 231.84 552.344 232.085 553.133 232.576C553.922 233.067 554.466 233.717 554.765 234.528C555.064 235.339 555.213 236.224 555.213 237.184V244.032C555.213 244.523 555.309 244.939 555.501 245.28C555.693 245.6 556.077 245.76 556.653 245.76H557.005V248.16H556.525ZM546.061 243.648C546.061 244.373 546.232 244.96 546.573 245.408C546.914 245.856 547.405 246.08 548.045 246.08C548.6 246.08 549.24 245.92 549.965 245.6C550.69 245.259 551.586 244.587 552.653 243.584V241.568C551.202 241.333 549.922 241.216 548.813 241.216C547.832 241.216 547.128 241.419 546.701 241.824C546.274 242.229 546.061 242.837 546.061 243.648Z" fill="#F1F1F1"/>
<defs>
<filter id="filter0_i_2_2" x="0" y="0" width="378" height="328" filterUnits="userSpaceOnUse" color-interpolation-filters="sRGB">
<feFlood flood-opacity="0" result="BackgroundImageFix"/>
<feBlend mode="normal" in="SourceGraphic" in2="BackgroundImageFix" result="shape"/>
<feColorMatrix in="SourceAlpha" type="matrix" values="0 0 0 0 0 0 0 0 0 0 0 0 0 0 0 0 0 0 127 0" result="hardAlpha"/>
<feOffset dy="4"/>
<feGaussianBlur stdDeviation="2"/>
<feComposite in2="hardAlpha" operator="arithmetic" k2="-1" k3="1"/>
<feColorMatrix type="matrix" values="0 0 0 0 0 0 0 0 0 0 0 0 0 0 0 0 0 0 0.25 0"/>
<feBlend mode="normal" in2="shape" result="effect1_innerShadow_2_2"/>
</filter>
<filter id="filter1_d_2_2" x="17.8574" y="44.4304" width="246.843" height="212.369" filterUnits="userSpaceOnUse" color-interpolation-filters="sRGB">
<feFlood flood-opacity="0" result="BackgroundImageFix"/>
<feColorMatrix in="SourceAlpha" type="matrix" values="0 0 0 0 0 0 0 0 0 0 0 0 0 0 0 0 0 0 127 0" result="hardAlpha"/>
<feOffset dy="4"/>
<feGaussianBlur stdDeviation="2"/>
<feComposite in2="hardAlpha" operator="out"/>
<feColorMatrix type="matrix" values="0 0 0 0 0 0 0 0 0 0 0 0 0 0 0 0 0 0 0.25 0"/>
<feBlend mode="normal" in2="BackgroundImageFix" result="effect1_dropShadow_2_2"/>
<feBlend mode="normal" in="SourceGraphic" in2="effect1_dropShadow_2_2" result="shape"/>
</filter>
<linearGradient id="paint0_linear_2_2" x1="1.99999" y1="229" x2="228" y2="76" gradientUnits="userSpaceOnUse">
<stop stop-color="#F51D00"/>
<stop offset="1" stop-color="#E08700" stop-opacity="0.83"/>
</linearGradient>
</defs>
</svg>
