<svg width="460" height="460" viewBox="0 0 460 460" fill="none" xmlns="http://www.w3.org/2000/svg">
<path d="M459.125 230C459.125 347.647 370.559 444.496 256.438 457.627C247.801 458.596 238.901 459.125 230 459.125C214.931 459.125 200.214 457.627 185.938 454.807C80.4519 434.362 0.875 341.478 0.875 230C0.875 103.453 103.453 0.875 230 0.875C356.547 0.875 459.125 103.453 459.125 230Z" fill="url(#paint0_linear_1_6)"/>
<path d="M325.175 265.691L318.478 283.316C314.6 293.626 304.554 300.5 293.362 300.5H256.438V457.627C247.801 458.596 238.901 459.125 230 459.125C214.931 459.125 200.214 457.627 185.938 454.807V300.5H159.941C145.047 300.5 133.062 288.691 133.062 274.062V256.438C133.062 241.809 145.047 230 159.941 230H185.938V177.125C185.938 128.568 225.506 89 274.062 89H300.5C319.976 89 335.75 104.774 335.75 124.25C335.75 143.726 319.976 159.5 300.5 159.5H274.062C264.369 159.5 256.438 167.431 256.438 177.125V230H300.059C318.83 230 331.784 248.418 325.175 265.691Z" fill="white"/>
<defs>
<linearGradient id="paint0_linear_1_6" x1="230" y1="559.059" x2="230" y2="7.7223" gradientUnits="userSpaceOnUse">
<stop stop-color="#155CDE"/>
<stop offset="0.278" stop-color="#1F7FE5"/>
<stop offset="0.569" stop-color="#279CEB"/>
<stop offset="0.82" stop-color="#2CAFEF"/>
<stop offset="1" stop-color="#2EB5F0"/>
</linearGradient>
</defs>
</svg>
